P2
24 7
255
0
0
0
0
0
0
0
0
0
0
0
0
0
0
0
0
0
0
0
0
0
0
0
0
0
255
64
64
64
0
0
255
255
255
255
0
0
192
192
192
192
0
0
255
255
255
255
0
128
128
128
128
128
128
128
255
255
255
255
128
128
128
128
128
128
128
128
128
128
128
128
128
0
64
64
64
0
0
0
255
255
255
255
0
0
192
192
192
0
0
0
255
255
255
255
0
0
64
0
0
0
0
0
255
255
255
255
0
0
192
0
0
0
0
0
255
0
0
0
0
0
64
0
0
0
0
0
255
255
255
255
0
0
192
192
192
192
0
0
255
0
0
0
0
0
0
0
0
0
0
0
0
0
0
0
0
0
0
0
0
0
0
0
0
0
0
0
0
